HIERARCHY
ROOT hip
{
  OFFSET 5.70873 43.8894 -1.52928
  CHANNELS 6 Xposition Yposition Zposition Zrotation Xrotation Yrotation
  JOINT abdomen
  {
    OFFSET 0 5.99393 0.287273
    CHANNELS 6 Xposition Yposition Zposition Zrotation Xrotation Yrotation
    JOINT chest
    {
      OFFSET 0 6.65865 -0.856112
      CHANNELS 6 Xposition Yposition Zposition Zrotation Xrotation Yrotation
      JOINT neck
      {
        OFFSET 0 8.65624 -1.42685
        CHANNELS 6 Xposition Yposition Zposition Zrotation Xrotation Yrotation
        JOINT head
        {
          OFFSET 0 3.80999 -0.190247
          CHANNELS 6 Xposition Yposition Zposition Zrotation Xrotation Yrotation
          End Site
          {
            OFFSET 0 0 0
          }
        }
      }
      JOINT rCollar
      {
        OFFSET -1.4963 7.5744 -1.52136
        CHANNELS 6 Xposition Yposition Zposition Zrotation Xrotation Yrotation
        JOINT rShldr
        {
          OFFSET -5.47506 -0.905672 0.485692
          CHANNELS 6 Xposition Yposition Zposition Zrotation Xrotation Yrotation
          JOINT rForeArm
          {
            OFFSET -11.3069 -0.201091 0.618544
            CHANNELS 6 Xposition Yposition Zposition Zrotation Xrotation Yrotation
            JOINT rHand
            {
              OFFSET -9.61414 -0.254739 3.48553
              CHANNELS 6 Xposition Yposition Zposition Zrotation Xrotation Yrotation
              JOINT rThumb1
              {
                OFFSET 0.176263 -0.07068 1.26622
                CHANNELS 6 Xposition Yposition Zposition Zrotation Xrotation Yrotation
                JOINT rThumb2
                {
                  OFFSET -1.04683 -0.546484 1.82182
                  CHANNELS 6 Xposition Yposition Zposition Zrotation Xrotation Yrotation
                  JOINT rThumb3
                  {
                    OFFSET -0.993472 -0.621916 0.655506
                    CHANNELS 6 Xposition Yposition Zposition Zrotation Xrotation Yrotation
                    End Site
                    {
                      OFFSET -0.996134 -0.66263 0.644615
                    }
                  }
                }
              }
              JOINT rIndex1
              {
                OFFSET -2.64253 0.566363 2.4162
                CHANNELS 6 Xposition Yposition Zposition Zrotation Xrotation Yrotation
                JOINT rIndex2
                {
                  OFFSET -1.39394 -0.635138 0.899356
                  CHANNELS 6 Xposition Yposition Zposition Zrotation Xrotation Yrotation
                  JOINT rIndex3
                  {
                    OFFSET -0.622395 -0.856016 0.402182
                    CHANNELS 6 Xposition Yposition Zposition Zrotation Xrotation Yrotation
                    End Site
                    {
                      OFFSET -0.472476 -0.801802 0.34216
                    }
                  }
                }
              }
              JOINT rMid1
              {
                OFFSET -3.20814 0.514427 1.52547
                CHANNELS 6 Xposition Yposition Zposition Zrotation Xrotation Yrotation
                JOINT rMid2
                {
                  OFFSET -1.56545 -0.497974 0.68919
                  CHANNELS 6 Xposition Yposition Zposition Zrotation Xrotation Yrotation
                  JOINT rMid3
                  {
                    OFFSET -0.679943 -1.17582 0.444246
                    CHANNELS 6 Xposition Yposition Zposition Zrotation Xrotation Yrotation
                    End Site
                    {
                      OFFSET -0.343874 -0.941341 0.267611
                    }
                  }
                }
              }
              JOINT rRing1
              {
                OFFSET -3.47877 0.200518 0.597719
                CHANNELS 6 Xposition Yposition Zposition Zrotation Xrotation Yrotation
                JOINT rRing2
                {
                  OFFSET -1.28208 -0.53155 0.44672
                  CHANNELS 6 Xposition Yposition Zposition Zrotation Xrotation Yrotation
                  JOINT rRing3
                  {
                    OFFSET -0.710288 -0.970167 0.4032
                    CHANNELS 6 Xposition Yposition Zposition Zrotation Xrotation Yrotation
                    End Site
                    {
                      OFFSET -0.403228 -0.950952 0.378354
                    }
                  }
                }
              }
              JOINT rPinky1
              {
                OFFSET -3.42483 -0.278904 -0.240415
                CHANNELS 6 Xposition Yposition Zposition Zrotation Xrotation Yrotation
                JOINT rPinky2
                {
                  OFFSET -1.05787 -0.635999 0.156459
                  CHANNELS 6 Xposition Yposition Zposition Zrotation Xrotation Yrotation
                  JOINT rPinky3
                  {
                    OFFSET -0.42815 -0.754232 0.287187
                    CHANNELS 6 Xposition Yposition Zposition Zrotation Xrotation Yrotation
                    End Site
                    {
                      OFFSET -0.235717 -0.725605 0.279416
                    }
                  }
                }
              }
            }
          }
        }
      }
      JOINT lCollar
      {
        OFFSET 1.4963 7.5744 -1.52136
        CHANNELS 6 Xposition Yposition Zposition Zrotation Xrotation Yrotation
        JOINT lShldr
        {
          OFFSET 5.47506 -0.905672 0.485692
          CHANNELS 6 Xposition Yposition Zposition Zrotation Xrotation Yrotation
          JOINT lForeArm
          {
            OFFSET 11.3069 -0.201091 0.618544
            CHANNELS 6 Xposition Yposition Zposition Zrotation Xrotation Yrotation
            JOINT lHand
            {
              OFFSET 9.61414 -0.254739 3.48553
              CHANNELS 6 Xposition Yposition Zposition Zrotation Xrotation Yrotation
              JOINT lThumb1
              {
                OFFSET -0.176263 -0.07068 1.26622
                CHANNELS 6 Xposition Yposition Zposition Zrotation Xrotation Yrotation
                JOINT lThumb2
                {
                  OFFSET 1.04683 -0.546484 1.82182
                  CHANNELS 6 Xposition Yposition Zposition Zrotation Xrotation Yrotation
                  JOINT lThumb3
                  {
                    OFFSET 0.993472 -0.621916 0.655506
                    CHANNELS 6 Xposition Yposition Zposition Zrotation Xrotation Yrotation
                    End Site
                    {
                      OFFSET 0.996134 -0.66263 0.644615
                    }
                  }
                }
              }
              JOINT lIndex1
              {
                OFFSET 2.64253 0.566363 2.4162
                CHANNELS 6 Xposition Yposition Zposition Zrotation Xrotation Yrotation
                JOINT lIndex2
                {
                  OFFSET 1.39394 -0.635138 0.899356
                  CHANNELS 6 Xposition Yposition Zposition Zrotation Xrotation Yrotation
                  JOINT lIndex3
                  {
                    OFFSET 0.622395 -0.856016 0.402182
                    CHANNELS 6 Xposition Yposition Zposition Zrotation Xrotation Yrotation
                    End Site
                    {
                      OFFSET 0.472476 -0.801802 0.34216
                    }
                  }
                }
              }
              JOINT lMid1
              {
                OFFSET 3.20814 0.514427 1.52547
                CHANNELS 6 Xposition Yposition Zposition Zrotation Xrotation Yrotation
                JOINT lMid2
                {
                  OFFSET 1.56545 -0.497974 0.68919
                  CHANNELS 6 Xposition Yposition Zposition Zrotation Xrotation Yrotation
                  JOINT lMid3
                  {
                    OFFSET 0.679943 -1.17582 0.444246
                    CHANNELS 6 Xposition Yposition Zposition Zrotation Xrotation Yrotation
                    End Site
                    {
                      OFFSET 0.343874 -0.941341 0.267611
                    }
                  }
                }
              }
              JOINT lRing1
              {
                OFFSET 3.47877 0.200518 0.597719
                CHANNELS 6 Xposition Yposition Zposition Zrotation Xrotation Yrotation
                JOINT lRing2
                {
                  OFFSET 1.28208 -0.53155 0.44672
                  CHANNELS 6 Xposition Yposition Zposition Zrotation Xrotation Yrotation
                  JOINT lRing3
                  {
                    OFFSET 0.710288 -0.970167 0.4032
                    CHANNELS 6 Xposition Yposition Zposition Zrotation Xrotation Yrotation
                    End Site
                    {
                      OFFSET 0.403228 -0.950952 0.378354
                    }
                  }
                }
              }
              JOINT lPinky1
              {
                OFFSET 3.42483 -0.278904 -0.240415
                CHANNELS 6 Xposition Yposition Zposition Zrotation Xrotation Yrotation
                JOINT lPinky2
                {
                  OFFSET 1.05787 -0.635999 0.156459
                  CHANNELS 6 Xposition Yposition Zposition Zrotation Xrotation Yrotation
                  JOINT lPinky3
                  {
                    OFFSET 0.42815 -0.754232 0.287187
                    CHANNELS 6 Xposition Yposition Zposition Zrotation Xrotation Yrotation
                    End Site
                    {
                      OFFSET 0.235717 -0.725605 0.279416
                    }
                  }
                }
              }
            }
          }
        }
      }
    }
  }
  JOINT rThigh
  {
    OFFSET -4.17848 -1.02486 0.046356
    CHANNELS 6 Xposition Yposition Zposition Zrotation Xrotation Yrotation
    JOINT rShin
    {
      OFFSET 1.27155 -17.465 -0.237699
      CHANNELS 6 Xposition Yposition Zposition Zrotation Xrotation Yrotation
      JOINT rFoot
      {
        OFFSET 0.529163 -17.3815 -1.19582
        CHANNELS 6 Xposition Yposition Zposition Zrotation Xrotation Yrotation
        JOINT rToe
        {
          OFFSET -0.711591 -4.4863 4.0596
          CHANNELS 6 Xposition Yposition Zposition Zrotation Xrotation Yrotation
          End Site
          {
            OFFSET -0.869915 -1.10655 1.99006
          }
        }
      }
    }
  }
  JOINT lThigh
  {
    OFFSET 4.17848 -1.02486 0.046356
    CHANNELS 6 Xposition Yposition Zposition Zrotation Xrotation Yrotation
    JOINT lShin
    {
      OFFSET -1.27155 -17.465 -0.237699
      CHANNELS 6 Xposition Yposition Zposition Zrotation Xrotation Yrotation
      JOINT lFoot
      {
        OFFSET -0.529163 -17.3815 -1.19582
        CHANNELS 6 Xposition Yposition Zposition Zrotation Xrotation Yrotation
        JOINT lToe
        {
          OFFSET 0.711591 -4.4863 4.0596
          CHANNELS 6 Xposition Yposition Zposition Zrotation Xrotation Yrotation
          End Site
          {
            OFFSET 0.869915 -1.10655 1.99006
          }
        }
      }
    }
  }
}
MOTION
Frames:	4
Frame Time:	0.0333333
0.519872 44.3663 -1.68951 -6.31219 -5.81447 13.0718 -8.88178e-016 5.99393 0.287273 -1.46813 5.03847 -0.473903 0 6.65865 -0.856112 -2.91117 10.0873 -0.822296 0 8.65624 -1.42685 -0.490257 0.272558 -12.2273 -3.55271e-015 3.80999 -0.190247 19.2895 3.72363 -6.64106 -1.4963 7.5744 -1.52136 -17.9137 -3.54896 -6.91886 -5.47506 -0.905672 0.485692 80.8426 0.242472 -19.1473 -11.3069 -0.201091 0.618544 -6.37363 28.3686 10.4516 -9.61414 -0.254739 3.48553 -0.850362 -15.5544 -2.95509 0.176263 -0.07068 1.26622 -2.1017 7.06749 -16.1234 -1.04683 -0.546484 1.82182 1.48288 -1.4479 4.28418 -0.993472 -0.621916 0.655506 -0.87897 0.969234 -2.68443 -2.64253 0.566363 2.4162 8.42317 7.34191 -7.54049 -1.39394 -0.635138 0.899356 -1.74941 -0.470258 0.250653 -0.622395 -0.856016 0.402182 4.27351 1.11243 -0.669995 -3.20814 0.514427 1.52547 2.23802 3.93056 -0.613917 -1.56545 -0.497974 0.68919 2.58706 0.785357 -0.385525 -0.679943 -1.17582 0.444246 1.80313 0.549437 -0.265052 -3.47877 0.200518 0.597719 1.00628 -0.274392 0.0952571 -1.28208 -0.53155 0.44672 2.26168 0.773386 -0.428055 -0.710288 -0.970167 0.4032 1.47188 0.505644 -0.274923 -3.42483 -0.278904 -0.240415 1.72306 -1.04435 1.04208 -1.05787 -0.635999 0.156459 0.00775429 0.00290473 -0.00122898 -0.42815 -0.754232 0.287187 1.68799 0.628177 -0.294 1.4963 7.5744 -1.52136 28.6545 -1.64006 1.31337 5.47506 -0.905672 0.485692 -96.0668 15.8467 1.29833 11.3069 -0.201091 0.618544 -3.10597 10.4528 -1.99011 9.61414 -0.254739 3.48553 23.881 -7.98013 0.160987 -0.176263 -0.07068 1.26622 4.63069 3.82536 13.4518 1.04683 -0.546484 1.82182 -3.80906 -0.892325 -6.71944 0.993472 -0.621916 0.655506 -0.0063788 -0.00190082 -0.0114321 2.64253 0.566363 2.4162 -1.12187 5.75113 7.25208 1.39394 -0.635138 0.899356 6.55927 -2.36017 -2.51046 0.622395 -0.856016 0.402182 1.02963 -0.349004 -0.409172 3.20814 0.514427 1.52547 3.20661 2.09536 -0.663744 1.56545 -0.497974 0.68919 2.52491 -0.986117 -0.998126 0.679943 -1.17582 0.444246 3.24218 -1.27515 -1.2752 3.47877 0.200518 0.597719 3.7147 -2.272 -2.02333 1.28208 -0.53155 0.44672 2.70654 -1.17023 -1.21364 0.710288 -0.970167 0.4032 3.41879 -1.48918 -1.52587 3.42483 -0.278904 -0.240415 2.70426 -3.04044 -2.80752 1.05787 -0.635999 0.156459 4.69968 -2.23361 -2.02639 0.42815 -0.754232 0.287187 3.18869 -1.49352 -1.39107 -4.17848 -1.02486 0.046356 3.3985 8.27594 -1.36779 1.27155 -17.465 -0.237699 -3.58923 -2.96122 -6.80738 0.529163 -17.3815 -1.19582 6.11758 0.216148 -5.74396 -0.711591 -4.4863 4.0596 0.000144219 2.63017e-006 2.94895e-005 4.17848 -1.02486 0.046356 13.6974 -7.43572 0.568927 -1.27155 -17.465 -0.237699 -1.75428 15.8545 -8.49965 -0.529163 -17.3815 -1.19582 -0.825276 -5.30006 -5.24388 0.711591 -4.4863 4.0596 -0.000120292 -3.38287e-005 1.51313e-005 
0.528426 44.3641 -1.68665 -6.31071 -5.8421 13.2684 0 5.99393 0.287273 -1.47077 5.01839 -0.470667 8.88178e-016 6.65865 -0.856112 -2.91684 10.0471 -0.81603 -3.55271e-015 8.65624 -1.42685 -0.491368 0.314985 -12.2506 0 3.80999 -0.190247 19.3799 3.83018 -6.63175 -1.4963 7.5744 -1.52136 -17.9272 -3.5626 -7.05385 -5.47506 -0.905672 0.485692 80.6727 0.213439 -19.0616 -11.3069 -0.201091 0.618544 -6.39874 28.2661 10.5027 -9.61414 -0.254739 3.48553 -0.825921 -16.0292 -2.79594 0.176263 -0.07068 1.26622 -2.03009 6.9538 -15.9586 -1.04683 -0.546484 1.82182 1.3519 -1.32853 3.91645 -0.993472 -0.621916 0.655506 -0.987347 1.09531 -3.02449 -2.64253 0.566363 2.4162 9.47274 7.52173 -7.8142 -1.39394 -0.635138 0.899356 -0.464048 -0.123959 0.0679665 -0.622395 -0.856016 0.402182 5.29557 1.37029 -0.842051 -3.20814 0.514427 1.52547 3.25266 4.22756 -0.829541 -1.56545 -0.497974 0.68919 3.8641 1.16577 -0.588419 -0.679943 -1.17582 0.444246 2.81326 0.853172 -0.420885 -3.47877 0.200518 0.597719 1.99756 0.0683037 -0.0842501 -1.28208 -0.53155 0.44672 3.51806 1.19461 -0.678229 -0.710288 -0.970167 0.4032 2.46543 0.842288 -0.467665 -3.42483 -0.278904 -0.240415 2.70136 -0.659689 0.890009 -1.05787 -0.635999 0.156459 1.2522 0.466851 -0.216163 -0.42815 -0.754232 0.287187 2.67504 0.99075 -0.474084 1.4963 7.5744 -1.52136 28.5324 -1.63829 1.32639 5.47506 -0.905672 0.485692 -96.0599 15.8625 1.24813 11.3069 -0.201091 0.618544 -3.13402 10.4452 -1.99185 9.61414 -0.254739 3.48553 23.7925 -7.61211 -0.288025 -0.176263 -0.07068 1.26622 4.5117 3.74255 13.2961 1.04683 -0.546484 1.82182 -3.60735 -0.856799 -6.36658 0.993472 -0.621916 0.655506 0.177573 0.0532874 0.316724 2.64253 0.566363 2.4162 -2.09866 5.98872 7.71802 1.39394 -0.635138 0.899356 5.38324 -1.91346 -2.07762 0.622395 -0.856016 0.402182 0.0870673 -0.0292162 -0.0348787 3.20814 0.514427 1.52547 2.27754 2.45708 -0.252002 1.56545 -0.497974 0.68919 1.35474 -0.522884 -0.540054 0.679943 -1.17582 0.444246 2.31778 -0.903161 -0.917936 3.47877 0.200518 0.597719 2.82203 -1.86402 -1.64229 1.28208 -0.53155 0.44672 1.57191 -0.671429 -0.710184 0.710288 -0.970167 0.4032 2.52664 -1.10761 -1.14019 3.42483 -0.278904 -0.240415 1.82482 -2.59342 -2.4492 1.05787 -0.635999 0.156459 3.58142 -1.68391 -1.55798 0.42815 -0.754232 0.287187 2.30212 -1.08418 -1.01536 -4.17848 -1.02486 0.046356 3.34532 8.33183 -0.988583 1.27155 -17.465 -0.237699 -3.42516 -2.98702 -6.09373 0.529163 -17.3815 -1.19582 6.21894 0.0352943 -5.70558 -0.711591 -4.4863 4.0596 0.00157848 0.0107706 -0.000269521 4.17848 -1.02486 0.046356 13.6759 -7.52056 0.338248 -1.27155 -17.465 -0.237699 -1.80986 15.9033 -8.71637 -0.529163 -17.3815 -1.19582 -0.764215 -5.31274 -5.58603 0.711591 -4.4863 4.0596 -6.36709e-005 -0.000489141 2.34631e-005 
0.540095 44.3635 -1.68671 -6.30516 -5.85728 13.5271 -8.88178e-016 5.99393 0.287273 -1.46856 4.9951 -0.499917 0 6.65865 -0.856112 -2.90987 10.0012 -0.875529 1.77636e-015 8.65624 -1.42685 -0.496995 0.297448 -12.3853 0 3.80999 -0.190247 19.4892 3.91212 -6.69994 -1.4963 7.5744 -1.52136 -17.9085 -3.58037 -7.23402 -5.47506 -0.905672 0.485692 80.5749 0.163589 -19.0952 -11.3069 -0.201091 0.618544 -6.36063 28.1077 10.791 -9.61414 -0.254739 3.48553 -0.989977 -16.0244 -2.73118 0.176263 -0.07068 1.26622 -1.85322 6.67389 -15.5119 -1.04683 -0.546484 1.82182 1.02784 -1.0264 2.99847 -0.993472 -0.621916 0.655506 -1.25507 1.41327 -3.87377 -2.64253 0.566363 2.4162 12.103 7.93596 -8.51934 -1.39394 -0.635138 0.899356 2.75427 0.723057 -0.422366 -0.622395 -0.856016 0.402182 7.85469 2.0011 -1.29214 -3.20814 0.514427 1.52547 5.79599 4.95305 -1.39177 -1.56545 -0.497974 0.68919 7.06348 2.09616 -1.1326 -0.679943 -1.17582 0.444246 5.34281 1.59994 -0.833704 -3.47877 0.200518 0.597719 4.48149 0.909852 -0.556789 -1.28208 -0.53155 0.44672 6.66825 2.22288 -1.34387 -0.710288 -0.970167 0.4032 4.95479 1.66882 -0.974793 -3.42483 -0.278904 -0.240415 5.15314 0.287881 0.485333 -1.05787 -0.635999 0.156459 4.3717 1.60524 -0.797341 -0.42815 -0.754232 0.287187 5.14124 1.84948 -0.938423 1.4963 7.5744 -1.52136 28.3376 -1.63565 1.34305 5.47506 -0.905672 0.485692 -96.0895 15.8239 1.40147 11.3069 -0.201091 0.618544 -3.18208 10.5348 -2.00775 9.61414 -0.254739 3.48553 23.6779 -7.48626 -0.495959 -0.176263 -0.07068 1.26622 4.20722 3.5391 12.8743 1.04683 -0.546484 1.82182 -3.10427 -0.762509 -5.48496 0.993472 -0.621916 0.655506 0.636233 0.195791 1.13627 2.64253 0.566363 2.4162 -4.55082 6.53417 8.9069 1.39394 -0.635138 0.899356 2.42958 -0.836406 -0.956547 0.622395 -0.856016 0.402182 -2.27849 0.742815 0.92348 3.20814 0.514427 1.52547 -0.0575579 3.33157 0.803179 1.56545 -0.497974 0.68919 -1.58666 0.593274 0.645751 0.679943 -1.17582 0.444246 -0.00303983 0.00115865 0.0010682 3.47877 0.200518 0.597719 0.578109 -0.871497 -0.664306 1.28208 -0.53155 0.44672 -1.28324 0.530864 0.590753 0.710288 -0.970167 0.4032 0.271893 -0.114403 -0.123894 3.42483 -0.278904 -0.240415 -0.38751 -1.50234 -1.52794 1.05787 -0.635999 0.156459 0.76724 -0.350681 -0.341012 0.42815 -0.754232 0.287187 0.0742015 -0.0617105 -0.04068 -4.17848 -1.02486 0.046356 3.29367 8.31068 -0.441671 1.27155 -17.465 -0.237699 -3.27007 -3.01198 -5.41492 0.529163 -17.3815 -1.19582 6.32634 -0.100488 -5.75583 -0.711591 -4.4863 4.0596 0.005818 0.0416385 -0.00104037 4.17848 -1.02486 0.046356 13.5834 -7.66545 -0.173133 -1.27155 -17.465 -0.237699 -1.80489 15.9178 -8.69957 -0.529163 -17.3815 -1.19582 -0.779371 -5.27695 -6.03395 0.711591 -4.4863 4.0596 4.47277e-006 -0.000928128 3.87234e-005 
0.551408 44.3594 -1.68964 -6.3084 -5.84943 13.7906 0 5.99393 0.287273 -1.46558 4.96417 -0.524466 8.88178e-016 6.65865 -0.856112 -2.90178 9.93999 -0.926017 -1.77636e-015 8.65624 -1.42685 -0.505417 0.201008 -12.6015 1.77636e-015 3.80999 -0.190247 19.5365 3.96227 -6.72889 -1.4963 7.5744 -1.52136 -17.8306 -3.6044 -7.48379 -5.47506 -0.905672 0.485692 80.5487 0.0956087 -19.2356 -11.3069 -0.201091 0.618544 -6.31731 27.9597 11.0441 -9.61414 -0.254739 3.48553 -0.731264 -16.5728 -2.59256 0.176263 -0.07068 1.26622 -1.62114 6.30423 -14.8593 -1.04683 -0.546484 1.82182 0.613976 -0.625985 1.80775 -0.993472 -0.621916 0.655506 -1.59602 1.8325 -4.97575 -2.64253 0.566363 2.4162 15.5362 8.36796 -9.48759 -1.39394 -0.635138 0.899356 6.95028 1.7806 -1.12971 -0.622395 -0.856016 0.402182 11.1906 2.78999 -1.91894 -3.20814 0.514427 1.52547 9.11723 5.85758 -2.17108 -1.56545 -0.497974 0.68919 11.2394 3.25763 -1.91686 -0.679943 -1.17582 0.444246 8.64094 2.54224 -1.41926 -3.47877 0.200518 0.597719 7.72404 1.96919 -1.21978 -1.28208 -0.53155 0.44672 10.7853 3.50204 -2.29295 -0.710288 -0.970167 0.4032 8.20378 2.70896 -1.68738 -3.42483 -0.278904 -0.240415 8.35533 1.48685 -0.0896165 -1.05787 -0.635999 0.156459 8.44779 3.03476 -1.64474 -0.42815 -0.754232 0.287187 8.37334 2.99417 -1.62239 1.4963 7.5744 -1.52136 28.1682 -1.6335 1.3566 5.47506 -0.905672 0.485692 -96.1852 15.7277 1.73195 11.3069 -0.201091 0.618544 -3.23853 10.6106 -2.15733 9.61414 -0.254739 3.48553 23.5083 -7.75995 -0.119416 -0.176263 -0.07068 1.26622 3.79394 3.28071 12.2559 1.04683 -0.546484 1.82182 -2.45246 -0.628415 -4.34015 0.993472 -0.621916 0.655506 1.22928 0.390874 2.19993 2.64253 0.566363 2.4162 -7.7591 7.10834 10.5091 1.39394 -0.635138 0.899356 -1.44036 0.474469 0.58107 0.622395 -0.856016 0.402182 -5.37342 1.68597 2.21592 3.20814 0.514427 1.52547 -3.12011 4.40265 2.22835 1.56545 -0.497974 0.68919 -5.44582 1.95025 2.27086 0.679943 -1.17582 0.444246 -3.04179 1.1196 1.24938 3.47877 0.200518 0.597719 -2.3666 0.357856 0.658697 1.28208 -0.53155 0.44672 -5.03653 1.99374 2.36958 0.710288 -0.970167 0.4032 -2.67995 1.09112 1.24391 3.42483 -0.278904 -0.240415 -3.29519 -0.142944 -0.279429 1.05787 -0.635999 0.156459 -2.93325 1.28974 1.33661 0.42815 -0.754232 0.287187 -2.86373 1.24629 1.30054 -4.17848 -1.02486 0.046356 3.25622 8.27289 0.341183 1.27155 -17.465 -0.237699 -3.12893 -2.9788 -4.75814 0.529163 -17.3815 -1.19582 6.44092 -0.322386 -5.92561 -0.711591 -4.4863 4.0596 0.0122727 0.089038 -0.00226509 4.17848 -1.02486 0.046356 13.4532 -7.9087 -0.878361 -1.27155 -17.465 -0.237699 -1.74661 15.9839 -8.4823 -0.529163 -17.3815 -1.19582 -0.867009 -5.2373 -6.57207 0.711591 -4.4863 4.0596 0.045024 -0.36814 0.0187605 
